<svg xmlns="http://www.w3.org/2000/svg" viewBox="0 17.299999237060547 62.150001525878906 40.79999923706055" data-asc="1.084" width="62.150001525878906" height="40.79999923706055"><defs/><g fill="#ffffff"><g transform="translate(0, 0)"><path d="M25.70 38.30Q27.00 38.30 27.75 39.20Q28.50 40.10 28.50 41.70Q28.50 42.10 28.45 42.53Q28.40 42.95 28.30 43.25Q27.25 43 26.00 42.95Q25.70 45.15 24.40 47.58Q23.10 50 21.25 52.13Q19.40 54.25 17.20 55.85Q15 57.45 12.85 58Q6.15 57.85 3.07 54.53Q0 51.20 0 44.15Q0 39 1.90 34.17Q3.80 29.35 6.95 25.60Q10.10 21.85 14.18 19.58Q18.25 17.30 22.65 17.30Q26.10 17.30 28.03 18.75Q29.95 20.20 29.95 22.85Q29.95 24.60 29.13 26.10Q28.30 27.60 26.40 29.35Q25.25 29 24.40 28.13Q23.55 27.25 23.35 26.10Q25.05 24.85 25.75 23.80Q26.45 22.75 26.45 21.30Q26.45 19 23.70 19Q21.45 19 18.88 20.68Q16.30 22.35 13.70 25.50Q10 29.95 8.30 34.67Q6.60 39.40 6.60 45.30Q6.60 47.50 7.05 49.30Q7.50 51.10 8.25 52.45Q9 53.80 10.02 54.60Q11.05 55.40 12.25 55.50Q13.85 55.15 15.45 53.88Q17.05 52.60 18.38 50.88Q19.70 49.15 20.63 47.18Q21.55 45.20 21.75 43.40Q20.35 43.70 19.07 43.98Q17.80 44.25 16.65 44.25Q15.15 44.25 14.03 43.50Q12.90 42.75 12.50 41.45Q13.40 40.95 15.13 40.40Q16.85 39.85 18.80 39.38Q20.75 38.90 22.63 38.60Q24.50 38.30 25.70 38.30ZM32.55 44.40Q32.55 40.90 33.38 37.53Q34.20 34.15 35.70 31.13Q37.20 28.10 39.27 25.58Q41.35 23.05 43.83 21.20Q46.30 19.35 49.10 18.33Q51.90 17.30 54.85 17.30Q58.30 17.30 60.22 18.75Q62.15 20.20 62.15 22.80Q62.15 23.80 61.88 24.85Q61.60 25.90 61.08 26.93Q60.55 27.95 59.85 28.90Q59.15 29.85 58.30 30.55Q57 30.35 56.05 29.38Q55.10 28.40 54.85 27.10Q56.60 25.65 57.63 24.08Q58.65 22.50 58.65 21.20Q58.65 19 55.90 19Q54.75 19 53.53 19.48Q52.30 19.95 51.05 20.80Q49.80 21.65 48.63 22.85Q47.45 24.05 46.45 25.50Q39.50 35.50 39.50 45.95Q39.50 49.65 40.65 51.90Q41.80 54.15 43.70 54.55Q45.85 54.05 49.15 51.80Q52.45 49.55 56.35 45.95Q56.85 46.45 56.95 47Q55.50 48.90 53.95 50.65Q52.40 52.40 50.88 53.85Q49.35 55.30 47.88 56.40Q46.40 57.50 45.15 58.10Q38.95 58 35.75 54.55Q32.55 51.10 32.55 44.40Z"/></g></g></svg>